<?xml version="1.0" standalone="no"?><!DOCTYPE svg PUBLIC "-//W3C//DTD SVG 1.1//EN" "http://www.w3.org/Graphics/SVG/1.1/DTD/svg11.dtd"><svg t="1755000165085" class="icon" viewBox="0 0 1024 1024" version="1.1" xmlns="http://www.w3.org/2000/svg" p-id="7378" xmlns:xlink="http://www.w3.org/1999/xlink" width="200" height="200"><path d="M509.470713 622.204658m-27.460833 0a27.460833 27.460833 0 1 0 54.921666 0 27.460833 27.460833 0 1 0-54.921666 0Z" fill="#17abe3" p-id="7379"></path><path d="M509.470713 525.36909m-27.460833 0a27.460833 27.460833 0 1 0 54.921666 0 27.460833 27.460833 0 1 0-54.921666 0Z" fill="#17abe3" p-id="7380"></path><path d="M509.470713 429.256175m-27.460833 0a27.460833 27.460833 0 1 0 54.921666 0 27.460833 27.460833 0 1 0-54.921666 0Z" fill="#17abe3" p-id="7381"></path><path d="M368.553282 290.506704c6.503881 0 13.007763-2.16796 18.066337-7.226535L484.177841 187.167255V339.647142c0 13.730416 11.562456 25.292872 25.292872 25.292872S534.763585 353.377558 534.763585 339.647142V185.721948L632.321807 281.834862c5.058574 5.058574 11.562456 7.226535 18.066337 7.226535 6.503881 0 13.007763-2.16796 18.066337-7.226535 10.117149-10.117149 9.394495-26.015526 0-35.410021L528.259704 108.398024c-5.058574-5.058574-11.562456-7.226535-18.066338-7.226535-6.503881 0-13.007763 2.16796-18.066337 7.226535L350.486944 247.870148c-10.117149 10.117149-10.117149 26.015526 0 35.410021 5.058574 5.058574 11.562456 7.226535 18.066338 7.226535z" fill="#17abe3" p-id="7382"></path><path d="M789.137615 466.834157c-13.730416 0-25.292872 11.562456-25.292873 25.292872v325.194072c0 22.402258-18.066337 40.468596-40.468595 40.468596H293.397318c-22.402258 0-40.468596-18.066337-40.468595-40.468596v-325.194072c0-13.730416-11.562456-25.292872-25.292873-25.292872S202.342978 478.396613 202.342978 492.127029v325.194072c0 49.863091 41.191249 91.05434 91.05434 91.05434h429.978829c49.863091 0 91.05434-41.191249 91.05434-91.05434v-325.194072c0-13.730416-10.839802-25.292872-25.292872-25.292872z" fill="#17abe3" p-id="7383"></path><path d="M308.573042 792.028229h396.014114c13.730416 0 25.292872-11.562456 25.292872-25.292873s-11.562456-25.292872-25.292872-25.292872H308.573042c-13.730416 0-25.292872 11.562456-25.292873 25.292872s10.839802 25.292872 25.292873 25.292873z" fill="#17abe3" p-id="7384"></path></svg>